<svg width="24" height="24" viewBox="0 0 24 24" fill="none" xmlns="http://www.w3.org/2000/svg">
<path d="M18.6923 8.30768C18.7899 8.40508 18.8672 8.52075 18.92 8.64808C18.9728 8.7754 19 8.91189 19 9.04973C19 9.18757 18.9728 9.32406 18.92 9.45139C18.8672 9.57871 18.7899 9.69439 18.6923 9.79178L12.7419 15.7422C12.6445 15.8397 12.5288 15.9171 12.4015 15.9699C12.2742 16.0227 12.1377 16.0499 11.9998 16.0499C11.862 16.0499 11.7255 16.0227 11.5982 15.9699C11.4709 15.9171 11.3552 15.8397 11.2578 15.7422L5.30737 9.79178C5.11056 9.59498 5 9.32805 5 9.04973C5 8.91192 5.02714 8.77546 5.07988 8.64814C5.13262 8.52081 5.20992 8.40513 5.30737 8.30768C5.40482 8.21023 5.5205 8.13293 5.64783 8.08019C5.77515 8.02745 5.91161 8.00031 6.04942 8.00031C6.32775 8.00031 6.59467 8.11087 6.79147 8.30768L11.9998 13.5146L17.2082 8.30768C17.3056 8.21014 17.4213 8.13276 17.5486 8.07997C17.6759 8.02717 17.8124 8 17.9503 8C18.0881 8 18.2246 8.02717 18.3519 8.07997C18.4793 8.13276 18.5949 8.21014 18.6923 8.30768Z" fill="black"/>
</svg>
