<svg width="24" height="24" viewBox="0 0 24 24" fill="none" xmlns="http://www.w3.org/2000/svg">
<path d="M24 0H0V24H24V0Z" fill="white" fill-opacity="0.01"/>
<path fill-rule="evenodd" clip-rule="evenodd" d="M2.97485 5.97485C2.97485 5.42257 3.42257 4.97485 3.97485 4.97485H19.9749C20.5272 4.97485 20.9749 5.42257 20.9749 5.97485C20.9749 6.52714 20.5272 6.97485 19.9749 6.97485H3.97485C3.42257 6.97485 2.97485 6.52714 2.97485 5.97485Z" fill="black"/>
<path fill-rule="evenodd" clip-rule="evenodd" d="M2.97485 11.9749C2.97485 11.4226 3.42257 10.9749 3.97485 10.9749H19.9749C20.5272 10.9749 20.9749 11.4226 20.9749 11.9749C20.9749 12.5271 20.5272 12.9749 19.9749 12.9749H3.97485C3.42257 12.9749 2.97485 12.5271 2.97485 11.9749Z" fill="black"/>
<path fill-rule="evenodd" clip-rule="evenodd" d="M2.97485 17.9749C2.97485 17.4226 3.42257 16.9749 3.97485 16.9749H19.9749C20.5272 16.9749 20.9749 17.4226 20.9749 17.9749C20.9749 18.5271 20.5272 18.9749 19.9749 18.9749H3.97485C3.42257 18.9749 2.97485 18.5271 2.97485 17.9749Z" fill="black"/>
</svg>
