<svg width="20" height="24" viewBox="0 0 20 24" fill="none" xmlns="http://www.w3.org/2000/svg">
<path d="M3.33892 6.20309L0.636719 3.06855L1.81523 1.70148L4.51743 4.83603H17.2189C17.6791 4.83603 18.0522 5.26883 18.0522 5.80269C18.0522 5.89677 18.0404 5.99035 18.0171 6.08047L16.0171 13.8138C15.9114 14.2227 15.5869 14.5028 15.2189 14.5028H5.00559V16.436H14.1723V18.3694H4.17225C3.71201 18.3694 3.33892 17.9365 3.33892 17.4028V6.20309ZM5.00559 6.76936V12.5694H14.5989L16.0989 6.76936H5.00559ZM4.58892 22.236C3.89856 22.236 3.33892 21.5869 3.33892 20.786C3.33892 19.9852 3.89856 19.336 4.58892 19.336C5.27928 19.336 5.83892 19.9852 5.83892 20.786C5.83892 21.5869 5.27928 22.236 4.58892 22.236ZM14.589 22.236C13.8985 22.236 13.339 21.5869 13.339 20.786C13.339 19.9852 13.8985 19.336 14.589 19.336C15.2793 19.336 15.839 19.9852 15.839 20.786C15.839 21.5869 15.2793 22.236 14.589 22.236Z" fill="black"/>
</svg>
