<svg width="20" height="20" viewBox="0 0 20 20" fill="none" xmlns="http://www.w3.org/2000/svg">
<path d="M9.75 4C9.94891 4 10.1397 4.07902 10.2803 4.21967C10.421 4.36032 10.5 4.55109 10.5 4.75V9H14.75C14.9489 9 15.1397 9.07902 15.2803 9.21967C15.421 9.36032 15.5 9.55109 15.5 9.75C15.5 9.94891 15.421 10.1397 15.2803 10.2803C15.1397 10.421 14.9489 10.5 14.75 10.5H10.5V14.75C10.5 14.9489 10.421 15.1397 10.2803 15.2803C10.1397 15.421 9.94891 15.5 9.75 15.5C9.55109 15.5 9.36032 15.421 9.21967 15.2803C9.07902 15.1397 9 14.9489 9 14.75V10.5H4.75C4.55109 10.5 4.36032 10.421 4.21967 10.2803C4.07902 10.1397 4 9.94891 4 9.75C4 9.55109 4.07902 9.36032 4.21967 9.21967C4.36032 9.07902 4.55109 9 4.75 9H9V4.75C9 4.55109 9.07902 4.36032 9.21967 4.21967C9.36032 4.07902 9.55109 4 9.75 4Z" fill="#333333"/>
</svg>
