<svg width="20" height="20" viewBox="0 0 20 20" fill="none" xmlns="http://www.w3.org/2000/svg">
<g clip-path="url(#clip0_265_82)">
<path d="M15.6754 13.1896C14.5857 13.1896 13.6096 13.7117 12.9966 14.5062L7.48016 11.3053C7.82068 10.4654 7.82068 9.53462 7.48016 8.69466L12.9966 5.49376C13.6096 6.28831 14.5857 6.81044 15.6754 6.81044C17.5596 6.81044 19.0806 5.28944 19.0806 3.40522C19.0806 1.521 17.5596 0 15.6754 0C13.7912 0 12.2702 1.521 12.2702 3.40522C12.2702 3.85925 12.361 4.31328 12.5199 4.69921L7.00343 7.92282C6.36779 7.12826 5.41433 6.60613 4.32465 6.60613C2.44043 6.60613 0.919434 8.12713 0.919434 10.0114C0.919434 11.8956 2.44043 13.4166 4.32465 13.4166C5.41433 13.4166 6.39049 12.8944 7.00343 12.0999L12.5199 15.3008C12.361 15.6867 12.2702 16.1407 12.2702 16.5948C12.2702 18.479 13.7912 20 15.6754 20C17.5596 20 19.0806 18.479 19.0806 16.5948C19.0806 14.7106 17.5596 13.1896 15.6754 13.1896ZM15.6754 0.930761C17.0602 0.930761 18.1726 2.04313 18.1726 3.42792C18.1726 4.81271 17.0602 5.92509 15.6754 5.92509C14.2906 5.92509 13.1782 4.81271 13.1782 3.42792C13.1782 2.04313 14.2906 0.930761 15.6754 0.930761ZM4.32465 12.5085C2.93986 12.5085 1.82749 11.3961 1.82749 10.0114C1.82749 8.62656 2.93986 7.51419 4.32465 7.51419C5.70944 7.51419 6.82182 8.62656 6.82182 10.0114C6.82182 11.3961 5.70944 12.5085 4.32465 12.5085ZM15.6754 19.0919C14.2906 19.0919 13.1782 17.9796 13.1782 16.5948C13.1782 15.21 14.2906 14.0976 15.6754 14.0976C17.0602 14.0976 18.1726 15.21 18.1726 16.5948C18.1726 17.9796 17.0602 19.0919 15.6754 19.0919Z" fill="black"/>
</g>
<defs>
<clipPath id="clip0_265_82">
<rect width="20" height="20" fill="white"/>
</clipPath>
</defs>
</svg>
