<svg width="20" height="22" viewBox="0 0 20 22" fill="none" xmlns="http://www.w3.org/2000/svg">
<path d="M10.0031 0.500002C8.70669 0.499643 7.44705 0.931019 6.423 1.72605C5.39896 2.52108 4.66882 3.63449 4.34783 4.89056C4.02684 6.14662 4.13326 7.47382 4.65032 8.66268C5.16737 9.85155 6.0656 10.8344 7.20325 11.4561C5.17485 12.0483 3.38592 13.2673 2.09271 14.9385C0.79951 16.6096 0.0683837 18.6472 0.00406595 20.7593C0.000656843 20.8688 0.0188592 20.9779 0.0576322 21.0803C0.0964052 21.1828 0.154989 21.2766 0.230034 21.3564C0.305079 21.4362 0.395115 21.5004 0.494994 21.5454C0.594873 21.5904 0.702637 21.6152 0.812127 21.6185H19.1952C19.4162 21.6118 19.6254 21.5177 19.7769 21.3568C19.9285 21.1959 20.0099 20.9814 20.0033 20.7604C19.939 18.6483 19.2078 16.6107 17.9146 14.9396C16.6214 13.2684 14.8325 12.0494 12.8041 11.4572C13.9424 10.8357 14.8413 9.85277 15.3587 8.66356C15.8761 7.47435 15.9827 6.14665 15.6615 4.89015C15.3403 3.63365 14.6096 2.51996 13.585 1.72496C12.5603 0.929951 11.3 0.498943 10.0031 0.500002Z" fill="black"/>
</svg>
