<svg width="20" height="22" viewBox="0 0 20 22" fill="none" xmlns="http://www.w3.org/2000/svg">
<path d="M11.0778 0.62951C10.7767 0.374241 10.3947 0.234131 10 0.234131C9.60526 0.234131 9.22332 0.374241 8.92222 0.62951L0.588889 7.69951C0.404361 7.85595 0.256102 8.05068 0.154409 8.27019C0.0527152 8.48969 2.56572e-05 8.7287 0 8.97062V19.4184C0 19.8604 0.175595 20.2843 0.488155 20.5969C0.800716 20.9095 1.22464 21.0851 1.66667 21.0851H6.94444C7.16546 21.0851 7.37742 20.9973 7.5337 20.841C7.68998 20.6847 7.77778 20.4727 7.77778 20.2517V13.3073H12.2222V20.2517C12.2222 20.7117 12.5956 21.0851 13.0556 21.0851H18.3333C18.7754 21.0851 19.1993 20.9095 19.5118 20.5969C19.8244 20.2843 20 19.8604 20 19.4184V8.97062C20 8.7287 19.9473 8.48969 19.8456 8.27019C19.7439 8.05068 19.5956 7.85595 19.4111 7.69951L11.0778 0.62951Z" fill="black"/>
</svg>
