<svg width="18" height="18" viewBox="0 0 18 18" fill="none" xmlns="http://www.w3.org/2000/svg">
<path d="M15.487 5.427L11.573 1.513C11.242 1.182 10.803 1 10.336 1H4.75C3.233 1 2 2.233 2 3.75V14.25C2 15.767 3.233 17 4.75 17H13.25C14.767 17 16 15.767 16 14.25V6.664C16 6.197 15.818 5.757 15.487 5.427ZM5.75 6H7.75C8.164 6 8.5 6.336 8.5 6.75C8.5 7.164 8.164 7.5 7.75 7.5H5.75C5.336 7.5 5 7.164 5 6.75C5 6.336 5.336 6 5.75 6ZM12.25 13.5H5.75C5.336 13.5 5 13.164 5 12.75C5 12.336 5.336 12 5.75 12H12.25C12.664 12 13 12.336 13 12.75C13 13.164 12.664 13.5 12.25 13.5ZM12.25 10.5H5.75C5.336 10.5 5 10.164 5 9.75C5 9.336 5.336 9 5.75 9H12.25C12.664 9 13 9.336 13 9.75C13 10.164 12.664 10.5 12.25 10.5ZM14.432 6.5H11.5C10.95 6.5 10.5 6.05 10.5 5.5V2.579L10.513 2.574L14.435 6.495L14.432 6.5Z" fill="black"/>
</svg>
